#!OML:ASF H:\Terrain\Patient Classification 1\PLAYGROUND\JustinFriday\JustinFriday.ASF
:FULLY-SPECIFIED
:DEGREES
3062
root 6.43406 18.2365 12.097 431.425 -87.7092 -56.556
lowerback 19.4466 0.422744 3.4363
upperback 1.6536 1.40821 2.84051
thorax -9.10199 0.527025 0.769266
lowerneck -15.6475 -0.879864 -0.685413
upperneck -3.27508 -1.39203 3.71408
head 1.66031 -0.693421 1.2239
rclavicle -9.54166e-015 -6.36111e-015
rhumerus 91.679 -18.9254 -46.2882
rradius 30.6827
rwrist 17.7755
rhand -30.0063 -28.2274
rfingers 7.12502
rthumb -3.32351 -418.181
lclavicle -9.54166e-015 -6.36111e-015
lhumerus 90.8766 17.6067 48.0086
lradius 34.9214
lwrist -12.417
lhand -20.5642 -8.88663
lfingers 7.12502
lthumb 5.79515 21.0141
rfemur -23.1208 -1.57572 26.4582
rtibia 32.4725
rfoot -12.7722 -10.4176
rtoes 9.97239
lfemur -16.4032 2.95949 -13.612
ltibia 30.367
lfoot -8.2212 -6.61607
ltoes -1.44576
3063
root 6.47827 18.2501 12.0798 427.016 -87.9971 -52.0507
lowerback 19.4443 0.559734 3.18233
upperback 1.50249 1.5349 2.65972
thorax -9.26776 0.595741 0.682508
lowerneck -15.1981 -0.923796 -0.286678
upperneck -3.56282 -1.50508 3.63338
head 1.48154 -0.76372 1.11986
rclavicle 1.59028e-015 -6.36111e-015
rhumerus 91.4343 -18.8687 -46.657
rradius 30.6919
rwrist 18.4615
rhand -29.2933 -28.8609
rfingers 7.12502
rthumb -2.63498 -418.824
lclavicle 1.59028e-015 -6.36111e-015
lhumerus 91.2459 17.095 48.0645
lradius 34.4105
lwrist -12.8397
lhand -20.1547 -7.20956
lfingers 7.12502
lthumb 6.19045 22.68
rfemur -23.3639 -1.69444 26.153
rtibia 32.4005
rfoot -12.7295 -10.326
rtoes 9.69762
lfemur -16.5944 2.52415 -13.8614
ltibia 30.2541
lfoot -8.13938 -6.43259
ltoes -1.32622
3064
root 6.51507 18.2501 12.0582 416.766 -88.0518 -41.8317
lowerback 19.3625 0.566346 2.94627
upperback 1.60238 1.48111 2.63911
thorax -9.11815 0.580994 0.808537
lowerneck -15.6774 -0.994605 -0.451154
upperneck -3.55656 -1.59011 3.85248
head 1.57459 -0.798538 1.21449
rclavicle -5.56597e-015 -9.54166e-015
rhumerus 91.0373 -19.4471 -44.9234
rradius 30.477
rwrist 17.1002
rhand -29.1607 -30.5928
rfingers 7.12502
rthumb -2.50687 -420.558
lclavicle -5.56597e-015 -9.54166e-015
lhumerus 91.9726 16.8778 48.651
lradius 33.6522
lwrist -13.4745
lhand -19.4879 -6.31037
lfingers 7.12502
lthumb 6.83418 23.5593
rfemur -23.39 -1.79409 25.9836
rtibia 32.3637
rfoot -12.7033 -10.5284
rtoes 9.74304
lfemur -16.6626 2.61633 -13.9992
ltibia 30.126
lfoot -8.09773 -6.85025
ltoes -2.18925
3065
root 6.56325 18.2565 12.0545 404.311 -88.0408 -29.4816
lowerback 19.459 0.140054 2.7221
upperback 1.39706 0.916462 2.91435
thorax -9.41011 0.326598 1.39059
lowerneck -15.6824 -0.665828 -0.728546
upperneck -2.8994 -1.07972 3.05444
head 1.77763 -0.546037 1.03828
rclavicle 7.95139e-016 -8.74653e-015
rhumerus 91.1904 -18.4649 -43.9957
rradius 30.7844
rwrist 16.3951
rhand -28.6363 -31.9605
rfingers 7.12502
rthumb -2.00045 -421.931
lclavicle 7.95139e-016 -8.74653e-015
lhumerus 90.9195 17.3694 48.293
lradius 33.2854
lwrist -13.8157
lhand -18.7148 -4.56754
lfingers 7.12502
lthumb 7.58039 25.2766
rfemur -23.4287 -1.73728 25.6588
rtibia 32.3101
rfoot -12.5234 -10.9003
rtoes 9.64121
lfemur -16.7472 2.59134 -14.266
ltibia 30.0003
lfoot -7.97089 -7.24289
ltoes -2.49795
3066
root 6.60654 18.2577 12.0267 400.408 -87.9122 -25.8886
lowerback 19.4767 0.521679 2.96806
upperback 1.73338 1.40963 2.4837
thorax -9.03178 0.543305 0.644656
lowerneck -18.6594 -0.631651 2.13987
upperneck -1.05141 -1.58391 0.904574
head 2.91247 -0.848737 -0.217125
rclavicle 1.98785e-015 1.19271e-014
rhumerus 91.7787 -19.599 -45.3497
rradius 29.0346
rwrist 18.0916
rhand -28.4397 -30.3083
rfingers 7.12502
rthumb -1.81062 -420.28
lclavicle 1.98785e-015 1.19271e-014
lhumerus 92.5719 16.2513 48.47
lradius 33.0105
lwrist -13.9837
lhand -18.3358 -2.76739
lfingers 7.12502
lthumb 7.94621 27.0633
rfemur -23.219 -1.74687 25.7087
rtibia 32.2308
rfoot -12.4927 -11.0186
rtoes 9.72806
lfemur -16.5855 2.99823 -14.1051
ltibia 29.9163
lfoot -7.83254 -8.25549
ltoes -2.46909
3067
root 6.65026 18.2605 12.0187 397.284 -87.8756 -22.9146
lowerback 19.4385 0.227755 2.81255
upperback 1.64656 1.02938 2.9152
thorax -9.12184 0.374964 1.30681
lowerneck -18.4302 -0.434132 1.00998
upperneck -0.715921 -1.06343 0.908331
head 2.99818 -0.581166 0.0284925
rclavicle 0 -1.43125e-014
rhumerus 93.0757 -18.4312 -45.4348
rradius 28.0317
rwrist 18.4777
rhand -28.4472 -28.857
rfingers 7.12502
rthumb -1.8178 -418.829
lclavicle 0 -1.43125e-014
lhumerus 91.8189 16.7051 48.6562
lradius 32.292
lwrist -14.115
lhand -18.4702 -2.1347
lfingers 7.12502
lthumb 7.8165 27.7008
rfemur -23.0972 -1.81585 25.6415
rtibia 32.1086
rfoot -12.6825 -10.9074
rtoes 10.9619
lfemur -16.4128 1.4747 -14.0301
ltibia 29.8407
lfoot -8.28411 -7.44946
ltoes -2.47827
3068
root 6.69172 18.2568 12.0014 395.477 -87.8929 -21.2166
lowerback 19.2237 0.449814 2.88674
upperback 1.86097 1.2967 2.73958
thorax -8.76175 0.498004 1.00009
lowerneck -18.2292 -0.737491 0.637899
upperneck -1.5046 -1.44344 1.86986
head 2.69477 -0.746685 0.384122
rclavicle 3.18055e-015 -9.54166e-015
rhumerus 92.5591 -19.5093 -44.2205
rradius 27.852
rwrist 17.5683
rhand -28.3545 -29.4655
rfingers 7.12502
rthumb -1.72833 -419.438
lclavicle 3.18055e-015 -9.54166e-015
lhumerus 92.5536 16.2517 48.6276
lradius 32.1253
lwrist -13.6694
lhand -18.4191 -1.1846
lfingers 7.12502
lthumb 7.86587 28.6491
rfemur -22.997 -1.59301 25.6066
rtibia 31.9391
rfoot -12.8042 -11.1137
rtoes 12.0215
lfemur -16.3365 0.589992 -13.9082
ltibia 29.8401
lfoot -8.64898 -7.15214
ltoes -1.45715
